<?xml version="1.0" encoding="UTF-8" standalone="no"?>
<!-- Creator: CorelDRAW X7 -->

<svg
   xmlns:dc="http://purl.org/dc/elements/1.1/"
   xmlns:cc="http://creativecommons.org/ns#"
   xmlns:rdf="http://www.w3.org/1999/02/22-rdf-syntax-ns#"
   xmlns:svg="http://www.w3.org/2000/svg"
   xmlns="http://www.w3.org/2000/svg"
   xmlns:sodipodi="http://sodipodi.sourceforge.net/DTD/sodipodi-0.dtd"
   xmlns:inkscape="http://www.inkscape.org/namespaces/inkscape"
   xml:space="preserve"
   width="800"
   height="800"
   version="1.1"
   style="fill-rule:evenodd"
   viewBox="0 0 22577.778 22577.778"
   id="svg3055"
   inkscape:version="0.48.4 r9939"
   sodipodi:docname="iguir2.svg"><metadata
     id="metadata3069"><rdf:RDF><cc:Work
         rdf:about=""><dc:format>image/svg+xml</dc:format><dc:type
           rdf:resource="http://purl.org/dc/dcmitype/StillImage" /><dc:title /></cc:Work></rdf:RDF></metadata><sodipodi:namedview
     pagecolor="#ffffff"
     bordercolor="#666666"
     borderopacity="1"
     objecttolerance="10"
     gridtolerance="10"
     guidetolerance="10"
     inkscape:pageopacity="0"
     inkscape:pageshadow="2"
     inkscape:window-width="1280"
     inkscape:window-height="1000"
     id="namedview3067"
     showgrid="false"
     inkscape:snap-global="false"
     inkscape:zoom="0.40115872"
     inkscape:cx="25.452687"
     inkscape:cy="13.2166"
     inkscape:window-x="1366"
     inkscape:window-y="24"
     inkscape:window-maximized="1"
     inkscape:current-layer="svg3055"
     fit-margin-top="2"
     fit-margin-right="2"
     fit-margin-bottom="2"
     fit-margin-left="2" /><defs
     id="defs3057"><style
       type="text/css"
       id="style3059">
    .fil0 {fill:#FEFEFE}
    .fil1 {fill:#005BAB}
   </style></defs><g
     id="g3032"
     transform="matrix(3.3907166,0,0,3.3907166,-39145.323,-20603.261)"><path
       style="fill:#d3f0fc"
       d="m 14380.227,12500.304 -239.889,-22.925 -197.556,-62.636 c -287.335,-91.102 -519.281,-201.923 -784.626,-374.883 l -234.209,-152.666 -190.215,-177.936 -190.214,-177.936 -172.799,-228.538 -172.799,-228.539 -149.131,-310.444 -149.132,-310.445 -55.994,-225.777 -55.995,-225.778 -17.365,-324.5556 -17.366,-324.5556 27.901,-329.6298 27.901,-329.6298 87.907,-263.0369 87.907,-263.0369 113.883,-211.6666 c 392.203,-728.9628 1065.761,-1285.928 1858.458,-1536.7594 l 239.889,-75.9076 340.22,-27.3997 340.221,-27.3998 337.113,27.4587 337.112,27.4587 239.889,75.8486 c 792.426,250.5511 1466.236,807.7034 1858.458,1536.7005 l 113.883,211.6666 87.425,261.6001 87.426,261.6001 28.471,316.9555 28.471,316.9555 -17.569,338.6667 -17.57,338.6667 -55.879,225.778 -55.88,225.777 -149.131,310.445 -149.131,310.444 -172.799,228.539 -172.799,228.538 -190.215,177.936 -190.214,177.936 -234.209,152.666 c -285.759,186.267 -523.741,296.302 -837.458,387.214 l -238.199,69.027 -447.151,13.563 -447.152,13.564 -239.889,-22.924 z m 771.846,-3573.2395 230.043,-242.1808 36.383,-84.8848 36.383,-84.8848 -17.59,-55.4203 -17.59,-55.4202 -39.015,32.3799 -39.016,32.3799 -69.099,-80.2829 c -38.004,-44.1556 -62.791,-86.613 -55.081,-94.3497 7.71,-7.7367 30.254,8.1383 50.099,35.2778 l 36.082,49.3445 88.611,0 88.611,0 0,48.5055 0,48.5054 170.304,-168.4499 170.304,-168.4499 -944.062,-14.1111 -944.063,-14.1111 -83.941,-62.0687 -83.94,-62.0686 -49.308,54.4837 -49.307,54.4837 29.592,35.8072 c 16.276,19.6939 38.492,83.4321 49.369,141.6405 l 19.778,105.8333 25.081,0 25.081,0 0,-68.89 0,-68.8899 27.255,-16.8441 27.254,-16.8441 117.685,60.0385 117.685,60.0385 21.239,-34.3646 21.238,-34.3646 34.391,21.2546 34.391,21.2546 -37.965,23.4635 -37.965,23.4634 91.396,94.2968 91.397,94.2968 0,60.3683 0,60.3683 -91.723,8.8437 -91.722,8.8437 -8.759,105.8333 -8.759,105.8333 84.062,0 c 46.234,0 104.101,7.6898 128.593,17.0884 l 44.532,17.0883 -17.529,-87.6439 -17.529,-87.6439 39.512,0 39.512,0 210.254,211.6667 210.254,211.6667 38.775,0 38.775,0 230.042,-242.1809 z m -884.735,-519.8192 c 0,-15.5222 12.7,-28.2222 28.222,-28.2222 15.523,0 28.223,12.7 28.223,28.2222 0,15.5223 -12.7,28.2223 -28.223,28.2223 -15.522,0 -28.222,-12.7 -28.222,-28.2223 z m 170.272,-35.2777 c 0.517,-19.4028 24.777,-63.8528 53.913,-98.7778 l 52.974,-63.5 44.865,0 c 65.384,0 55.265,35.9199 -34.29,121.7199 -86.942,83.2952 -118.893,94.3274 -117.462,40.5579 z m 1071.506,-74.1555 0,-59.9001 42.333,0 c 23.284,0 42.334,11.145 42.334,24.7666 0,13.6216 -19.05,40.5766 -42.334,59.9001 l -42.333,35.1335 0,-59.9001 z m -197.556,-31.6779 -42.333,-27.3579 63.5,-0.4321 63.5,-0.4322 0,28.2222 c 0,35.3603 -29.951,35.3603 -84.667,0 z m -1326.444,-56.4444 0,-28.2222 58.11,0 58.11,0 -17.442,28.2222 c -9.594,15.5222 -35.743,28.2222 -58.11,28.2222 l -40.668,0 0,-28.2222 z m 352.778,0 -17.443,-28.2222 43.999,0 43.999,0 0,28.2222 c 0,15.5222 -11.95,28.2222 -26.556,28.2222 -14.607,0 -34.406,-12.7 -43.999,-28.2222 z m -190.5,-18.6911 c 19.402,-7.8291 51.152,-7.8291 70.555,0 l 35.278,14.2349 -70.556,0 -70.555,0 35.278,-14.2349 z"
       id="path3056"
       inkscape:connector-curvature="0" /><path
       style="fill:#ade3fb"
       d="m 14436.671,12497.873 -239.888,-21.947 -239.889,-76.248 c -460.21,-146.276 -873.04,-387.835 -1220.366,-714.071 l -200.183,-188.028 -166.645,-223.904 -166.644,-223.904 -139.085,-284.759 -139.085,-284.759 -72.914,-281.559 -72.913,-281.5597 -1.612,-479.7778 -1.611,-479.7778 60.426,-249.2067 c 269.979,-1113.4437 1072.864,-1954.6615 2191.187,-2295.8016 l 254,-77.4818 592.667,0 592.667,0 254,77.4818 c 1117.263,340.8169 1921.464,1183.4129 2191.187,2295.8016 l 60.426,249.2067 -1.612,479.7778 -1.611,479.7778 -72.913,281.5597 -72.914,281.559 -139.085,284.759 -139.085,284.759 -166.645,223.904 -166.644,223.904 -200.184,188.028 c -347.904,326.78 -761.985,568.883 -1220.365,713.516 l -239.889,75.693 -282.222,25.486 c -322.384,29.114 -493.222,28.616 -832.556,-2.43 z m 584.178,-1473.016 c 62.956,-112.537 294.922,-553.862 515.481,-980.723 220.559,-426.8609 419.142,-794.8846 441.295,-817.8301 l 40.278,-41.7189 472.329,-4.5938 c 259.781,-2.5258 477.65,-5.978 484.153,-7.6699 13.272,-3.4521 -245.881,-278.5158 -727.467,-772.1315 l -323.53,-331.6111 -1011.47,0 -1011.469,0 -56.444,-56.4445 c -31.045,-31.0444 -56.632,-72.3194 -56.861,-91.7222 l -0.416,-35.2778 -35.418,69.9994 -35.418,69.9994 -68.995,34.3976 -68.994,34.3977 48.384,18.5669 48.384,18.5668 0,36.2972 0,36.2971 -272.5,292.2945 c -149.875,160.762 -318.15,324.0445 -373.944,362.8501 -55.795,38.8056 -105.539,79.6625 -110.542,90.7932 -5.004,11.1308 -39.546,65.1058 -76.761,119.9445 -37.214,54.8388 -58.52,101.9118 -47.347,104.607 11.174,2.6952 226.232,5.8702 477.905,7.0555 l 457.589,2.1562 41.077,42.3333 c 22.592,23.2834 258.092,458.5759 523.334,967.3164 541.398,1038.413 540.301,1036.461 582.39,1036.461 l 30.511,0 114.466,-204.611 z"
       id="path3054"
       inkscape:connector-curvature="0" /><path
       style="fill:#cba2d6"
       d="m 14436.671,12497.873 -239.888,-21.947 -239.889,-76.248 c -460.21,-146.276 -873.04,-387.835 -1220.366,-714.071 l -200.183,-188.028 -166.645,-223.904 -166.644,-223.904 -139.085,-284.759 -139.085,-284.759 -72.914,-281.559 -72.913,-281.5597 -1.612,-479.7778 -1.611,-479.7778 60.426,-249.2067 c 269.979,-1113.4437 1072.864,-1954.6615 2191.187,-2295.8016 l 254,-77.4818 592.667,0 592.667,0 254,77.4818 c 1117.263,340.8169 1921.464,1183.4129 2191.187,2295.8016 l 60.426,249.2067 -1.612,479.7778 -1.611,479.7778 -72.913,281.5597 -72.914,281.559 -139.085,284.759 -139.085,284.759 -166.645,223.904 -166.644,223.904 -200.184,188.028 c -347.904,326.78 -761.985,568.883 -1220.365,713.516 l -239.889,75.693 -282.222,25.486 c -322.384,29.114 -493.222,28.616 -832.556,-2.43 z m 1503.453,-2258.708 1050.659,-1018.5239 0,-35.6452 0,-35.6455 -523.417,-540.3858 -523.417,-540.3859 -1021.75,0 -1021.75,0 -56.444,-56.4445 c -31.045,-31.0444 -56.632,-72.3194 -56.861,-91.7222 l -0.416,-35.2778 -35.418,69.9994 -35.418,69.9994 -68.995,34.3976 -68.994,34.3977 48.384,18.5669 48.384,18.5668 0,39.7441 0,39.7441 -327.515,337.2741 c -180.134,185.5008 -349.656,344.3013 -376.717,352.89 l -49.202,15.616 -32.105,62.9575 c -17.657,34.6267 -60.86,99.0027 -96.005,143.0579 l -63.9,80.1003 310.444,299.2789 c 170.745,164.6035 649.073,627.0331 1062.953,1027.6221 413.879,400.589 760.233,728.343 769.674,728.343 9.442,0 489.963,-458.336 1067.826,-1018.525 z"
       id="path3052"
       inkscape:connector-curvature="0" /><path
       style="fill:#ac9bcb"
       d="m 14239.116,12457.103 c -598.397,-133.239 -1073.334,-388.446 -1518.836,-816.145 l -236.825,-227.362 -182.288,-273.818 -182.289,-273.819 -97.568,-239.316 c -53.663,-131.625 -124.878,-338.76 -158.256,-460.302 l -60.688,-220.9845 -2.116,-493.8889 -2.117,-493.8889 66.806,-254 c 127.928,-486.3887 350.351,-914.1464 678.662,-1305.1794 l 148.013,-176.2906 222.337,-177.8914 c 122.285,-97.8402 316.722,-231.8946 432.082,-297.8985 l 209.745,-120.0071 272.572,-97.4209 272.572,-97.4209 242.127,-42.2234 242.127,-42.2234 288.94,0 288.94,0 242.126,42.2234 242.128,42.2234 272.572,97.4209 272.571,97.4209 209.746,120.0071 c 115.36,66.0039 309.796,200.0583 432.082,297.8985 l 222.336,177.8914 148.014,176.2906 c 328.31,391.033 550.734,818.7907 678.662,1305.1794 l 66.805,254 -2.116,493.8889 -2.117,493.8889 -60.688,220.9845 c -33.378,121.542 -104.594,328.677 -158.256,460.302 l -97.569,239.316 -182.288,273.819 -182.289,273.818 -236.824,227.362 c -393.976,378.232 -778.32,602.289 -1307.325,762.119 l -253.843,76.694 -522.112,9.089 -522.111,9.088 -183.444,-40.845 z m 1701.008,-2217.446 c 577.862,-559.9185 1054.408,-1034.3134 1058.989,-1054.2112 l 8.332,-36.1781 -384.224,-406.2889 c -211.323,-223.459 -452.08,-472.964 -535.016,-554.4557 l -150.792,-148.1667 -999.667,0 -999.667,0 -18.57,-18.5699 -18.57,-18.57 34.811,-41.9454 34.812,-41.9454 -62.104,19.711 -62.104,19.711 -19.005,-143.2736 c -10.454,-78.8004 -29.66,-149.8578 -42.681,-157.9053 l -23.675,-14.6319 -14.256,64.6542 c -7.84,35.5598 -17.737,102.7542 -21.994,149.3209 l -7.738,84.6667 -45.626,-3.2926 -45.626,-3.2926 3.292,45.6122 3.293,45.6123 -70.556,7.9146 c -129.882,14.5697 -197.555,35.3137 -197.555,60.5577 l 0,25.0362 141.111,19.4077 c 77.611,10.6743 141.111,28.4934 141.111,39.5981 0,11.1047 -136.146,164.1295 -302.548,340.0551 l -302.548,319.8648 -92.563,38.6753 -92.563,38.6753 0,44.6535 c 0,24.5594 -26.397,81.7241 -58.659,127.0328 l -58.659,82.3789 9.946,29.8394 c 12.781,38.3427 2089.854,2053.9756 2118.824,2056.1486 11.982,0.897 494.582,-456.481 1072.445,-1016.399 z"
       id="path3050"
       inkscape:connector-curvature="0" /><path
       style="fill:#c07bcc"
       d="m 14332.415,12459.349 c -430.186,-81.858 -817.376,-239.683 -1176.726,-479.653 l -228.907,-152.86 -186.665,-181.98 c -102.665,-100.088 -253.086,-269.421 -334.267,-376.295 l -147.603,-194.316 -151.342,-310.444 -151.342,-310.445 -56.52,-219.653 c -31.086,-120.81 -71.478,-352.5845 -89.76,-515.0556 l -33.24,-295.402 33.423,-297.0209 c 77.888,-692.1883 296.396,-1206.4581 734.135,-1727.8252 l 148.013,-176.2906 222.337,-177.8914 c 122.285,-97.8402 316.722,-231.8946 432.082,-297.8985 l 209.745,-120.0071 272.572,-97.4209 272.572,-97.4209 242.127,-42.2234 242.127,-42.2234 288.94,0 288.94,0 242.126,42.2234 242.128,42.2234 272.572,97.4209 272.571,97.4209 209.746,120.0071 c 115.36,66.0039 310.204,200.3848 432.989,298.6241 l 223.243,178.6169 158.333,189.6761 c 87.083,104.3218 215.471,280.8187 285.306,392.2151 l 126.972,202.539 98.115,240.6578 98.115,240.6579 59.194,262.3587 59.194,262.3587 1.629,381 1.628,381 -34.953,183.4445 c -19.224,100.8944 -67.214,285.0444 -106.645,409.2224 l -71.693,225.778 -126.629,245.576 c -153.961,298.582 -350.396,562.562 -598.885,804.812 l -186.665,181.98 -235.332,157.136 -235.332,157.137 -244.446,105.093 c -134.443,57.802 -352.393,133.29 -484.332,167.752 l -239.889,62.659 -423.333,10.685 -423.334,10.685 -203.034,-38.634 z m 1653.177,-2227.237 1075.959,-1039.6891 -19.656,-32.7553 c -10.812,-18.0157 -254.923,-277.2306 -542.469,-576.0334 l -522.812,-543.2778 -1019.267,0 -1019.268,0 -18.57,-18.5699 -18.57,-18.57 34.811,-41.9454 34.812,-41.9454 -62.104,19.711 -62.104,19.711 -19.005,-143.2736 c -10.454,-78.8004 -29.66,-149.8578 -42.681,-157.9053 l -23.675,-14.6319 -14.256,64.6542 c -7.84,35.5598 -17.737,102.7542 -21.994,149.3209 l -7.738,84.6667 -45.626,-3.2926 -45.626,-3.2926 3.292,44.5446 3.293,44.5446 -42.333,6.2575 c -23.284,3.4417 -91.613,14.3391 -151.843,24.2165 l -109.509,17.9589 24.842,24.5614 c 13.664,13.5088 85.674,34.8481 160.024,47.4205 l 135.181,22.8589 -326.235,343.832 -326.235,343.832 -61.789,8.9458 -61.789,8.9458 -15.268,57.2664 c -8.398,31.4966 -52.331,105.3476 -97.629,164.1132 l -82.361,106.8471 96.472,95.0765 c 53.06,52.2921 540.972,521.5382 1084.25,1042.7688 l 987.778,947.693 31.869,-7.438 c 17.529,-4.091 516.052,-475.298 1107.829,-1047.127 z"
       id="path3048"
       inkscape:connector-curvature="0" /><path
       style="fill:#b774c4"
       d="m 14332.415,12459.349 c -430.186,-81.858 -817.376,-239.683 -1176.726,-479.653 l -228.907,-152.86 -186.665,-181.98 c -102.665,-100.088 -253.086,-269.421 -334.267,-376.295 l -147.603,-194.316 -151.342,-310.444 -151.342,-310.445 -56.52,-219.653 c -31.086,-120.81 -71.478,-352.5845 -89.76,-515.0556 l -33.24,-295.402 33.56,-298.2412 33.559,-298.241 69.243,-238.943 c 92.301,-318.5101 206.432,-563.9749 390.878,-840.6687 l 152.59,-228.9062 225.158,-218.7222 225.158,-218.7222 1905.933,0 1905.933,0 44.594,-17.1123 44.594,-17.1123 289.325,292.2789 289.326,292.279 138.066,233.061 138.067,233.0609 92.408,246.7168 c 50.824,135.6943 114.361,348.3169 141.192,472.4947 l 48.785,225.7778 1.073,366.8888 1.072,366.8889 -34.771,183.4445 c -19.124,100.8944 -67.033,285.0444 -106.464,409.2224 l -71.692,225.778 -126.63,245.576 c -153.96,298.582 -350.395,562.562 -598.884,804.812 l -186.665,181.98 -235.332,157.136 -235.332,157.137 -244.446,105.093 c -134.447,57.802 -352.397,133.29 -484.336,167.752 l -239.889,62.659 -423.333,10.685 -423.334,10.685 -203.034,-38.634 z m 1653.177,-2227.237 1075.959,-1039.6891 -19.656,-32.7553 c -10.812,-18.0157 -254.923,-277.2306 -542.469,-576.0334 l -522.812,-543.2778 -974.582,-1.9836 -974.583,-1.9836 -52.125,-20.5121 -52.125,-20.5122 45.07,-37.4043 c 24.788,-20.5724 45.069,-56.36 45.069,-79.5279 l 0,-42.1235 -69.563,45.5792 c -97.265,63.7307 -99.719,61.5641 -100.202,-88.4764 l -0.433,-134.0556 -26.614,-42.0974 -26.615,-42.0974 -30.148,30.1474 -30.147,30.1475 -17.292,146.0055 c -19.112,161.3657 -24.448,166.7039 -99.103,99.1415 l -51.784,-46.864 -16.194,16.1931 -16.193,16.1932 45.601,69.5961 45.602,69.5961 -45.655,17.5192 c -25.11,9.6356 -88.316,17.5192 -140.458,17.5192 l -94.804,0 -18.603,30.0999 -18.603,30.0999 16.317,16.3166 c 8.974,8.9742 80.096,22.4451 158.048,29.9353 l 141.732,13.6186 0,19.6577 c 0,10.8118 -140.003,167.1024 -311.118,347.3125 l -311.119,327.6548 -61.669,8.9302 -61.669,8.9301 -15.268,57.2664 c -8.398,31.4966 -52.331,105.3476 -97.629,164.1132 l -82.361,106.8471 96.472,95.0765 c 53.06,52.2921 540.972,521.5382 1084.25,1042.7688 l 987.778,947.693 31.869,-7.438 c 17.529,-4.091 516.052,-475.298 1107.829,-1047.127 z"
       id="path3046"
       inkscape:connector-curvature="0" /><path
       style="fill:#a96cba"
       d="m 14332.415,12459.349 c -430.186,-81.858 -817.376,-239.683 -1176.726,-479.653 l -228.907,-152.86 -183.695,-179.096 c -461.733,-450.172 -757.496,-991.081 -890.613,-1628.811 l -44.812,-214.6836 1.967,-366.8889 1.966,-366.8889 53.127,-254.612 53.126,-254.612 89.636,-223.8554 c 98.436,-245.8324 253.105,-516.4557 332.324,-581.4648 l 50.752,-41.6483 112.889,3.7232 c 62.089,2.0478 300.214,5.5661 529.167,7.8184 l 416.278,4.0953 0,54.2791 0,54.2791 73.064,86.832 73.064,86.832 -124.114,0 -124.115,0 -52.039,38.0519 -52.039,38.0519 20.088,32.5037 20.088,32.5036 104.168,1.9835 c 57.292,1.0911 128.373,11.4767 157.957,23.0793 l 53.788,21.0958 -292.396,315.3918 -292.397,315.392 -93.003,17.4475 -93.003,17.4475 0,70.3961 0,70.3962 -70.556,83.8506 c -38.805,46.1176 -70.555,92.9194 -70.555,104.0037 0,11.0842 482.792,483.185 1072.871,1049.1127 l 1072.872,1028.959 37.871,0 37.872,0 1076.51,-1039.616 1076.511,-1039.6168 -21.198,-34.892 c -11.659,-19.1908 -255.99,-284.7883 -542.959,-590.2171 l -521.761,-555.3249 -1014.214,0 -1014.214,0 59.484,-63.5 c 32.716,-34.925 72.715,-98.425 88.887,-141.1111 l 29.404,-77.6111 1517.643,-4.9944 c 834.703,-2.7469 1571.552,-7.7559 1637.44,-11.1312 l 119.797,-6.1369 125.401,201.6313 c 68.971,110.8971 165.873,302.9558 215.337,426.797 l 89.936,225.1658 52.832,254.612 52.832,254.612 2.433,353.7582 2.433,353.7585 -31.95,182.4637 c -17.573,100.355 -64.212,284.064 -103.643,408.242 l -71.693,225.778 -126.629,245.576 c -153.96,298.582 -350.396,562.562 -598.885,804.812 l -186.665,181.98 -235.332,157.136 -235.332,157.137 -244.445,105.093 c -134.446,57.802 -352.396,133.29 -484.335,167.752 l -239.889,62.659 -423.333,10.685 -423.334,10.685 -203.034,-38.634 z m -709.589,-4619.6713 c -19.206,-30.7542 -63.023,-67.2277 -97.371,-81.0523 l -62.45,-25.1356 90.32,-1.7889 90.319,-1.7889 28.767,-49.3889 28.766,-49.3889 0.858,118.2789 0.859,118.2788 -22.574,13.9512 -22.573,13.9512 -34.921,-55.9166 z m 249.401,-34.3223 0,-93.8899 86.605,12.711 86.606,12.711 -77.775,81.1789 c -96.637,100.8677 -95.436,101.0276 -95.436,-12.711 z"
       id="path3044"
       inkscape:connector-curvature="0" /><path
       style="fill:#9964ae"
       d="m 14349.796,12455.673 c -622.956,-112.809 -1136.434,-371.824 -1585.65,-799.853 l -219.08,-208.749 -137.767,-186.413 c -75.772,-102.527 -182.911,-268.963 -238.087,-369.857 l -100.319,-183.444 -98.307,-296.334 -98.306,-296.333 -34.175,-238.2372 -34.174,-238.2374 17.67,-326.2071 17.671,-326.2074 42.997,-178.5928 c 23.649,-98.2261 56.979,-204.7169 74.067,-236.6462 l 31.069,-58.0533 21.287,34.4431 21.287,34.4432 582.477,-9.4637 c 320.362,-5.205 582.467,-2.516 582.457,5.9754 -0.01,8.4915 -49.819,64.0675 -110.686,123.5022 l -110.667,108.0632 -101.554,-19.0518 -101.555,-19.0517 17.964,112.339 17.963,112.3391 -61.78,86.7625 -61.78,86.7625 9.093,35.1147 c 7.756,29.9505 1242.876,1222.4067 1946.218,1878.9917 l 221.728,206.987 24.954,-9.432 c 47.675,-18.02 2176.527,-2088.7735 2176.527,-2117.1278 0,-15.6878 -102.841,-138.4241 -228.535,-272.7472 -125.694,-134.3231 -238.744,-263.2738 -251.221,-286.5571 l -22.687,-42.3333 619.106,0 619.106,0 39.771,133.9032 c 21.875,73.6468 54.948,237.6918 73.496,364.5444 l 33.724,230.641 -16.303,326.9003 -16.303,326.9 -61.718,239.8885 c -33.946,131.939 -108.649,349.049 -166.007,482.467 l -104.289,242.578 -138.619,208.978 -138.619,208.977 -220.732,230.348 -220.731,230.347 -209.885,145.093 c -404.216,279.435 -795.301,439.745 -1278.226,523.96 l -237.833,41.475 -285.581,-2.533 -285.581,-2.532 -213.875,-38.73 z"
       id="path3042"
       inkscape:connector-curvature="0" /><path
       style="fill:#8d5aa5"
       d="m 14479.005,12467.651 c -446.728,-55.801 -893.235,-223.899 -1301.359,-489.928 l -242.941,-158.357 -220.927,-220.926 -220.926,-220.927 -167.408,-254.947 -167.408,-254.948 -90.042,-216.291 c -49.523,-118.96 -116.007,-313.769 -147.743,-432.908 l -57.701,-216.618 -9.292,-381.0001 c -5.11,-209.55 -3.09,-353.8739 4.491,-320.7196 l 13.782,60.2804 86.654,17.3307 c 47.659,9.5318 196.191,17.0276 330.07,16.6574 l 243.416,-0.6717 107.746,-25.008 107.745,-25.0083 103.921,87.9754 c 154.582,130.862 363.943,325.9633 1209.969,1127.5538 l 767.007,726.722 37.139,-0.431 37.14,-0.432 1098.493,-1055.82 1098.494,-1055.8196 141.195,123.514 141.195,123.5143 30.312,-19.7632 30.311,-19.7635 211.314,0 211.314,0 20.273,-84.6666 20.273,-84.6667 -10.061,409.2222 -10.062,409.2221 -74.465,251.189 c -97.436,328.673 -226.927,604.996 -412.467,880.167 l -150.573,223.311 -217.178,217.338 -217.179,217.338 -242.941,158.357 c -293.181,191.105 -530.062,301.304 -841.786,391.605 l -233.795,67.727 -254,31.127 c -287.612,35.246 -476.634,35.114 -762,-0.531 z"
       id="path3040"
       inkscape:connector-curvature="0" /><path
       style="fill:#6e488d"
       d="m 14377.952,12444.479 c -607.514,-111.052 -1119.964,-363.023 -1562.998,-768.522 l -194.89,-178.378 -165.161,-222.543 -165.162,-222.543 -111.868,-234.387 c -126.17,-264.35 -134.11,-294.849 -59.093,-226.959 l 52.775,47.76 948.387,-7.271 948.388,-7.272 247.671,216.193 c 136.219,118.907 304.29,274.105 373.491,344.886 l 125.821,128.691 37.98,0 37.981,0 1046.511,-1008.944 c 575.582,-554.9196 1068.919,-1024.6452 1096.305,-1043.8346 l 49.793,-34.8901 241.074,253.3275 c 132.591,139.3297 273.556,295.914 313.257,347.9645 l 72.184,94.6376 -28.561,138.4811 c -15.708,76.164 -35.039,181.136 -42.956,233.271 -7.918,52.135 -26.805,117.975 -41.97,146.311 -15.165,28.337 -27.573,77.756 -27.573,109.821 l 0,58.3 22.578,0 c 12.418,0 37.818,-15.24 56.444,-33.867 56.562,-56.562 38.987,-1.719 -78.001,243.394 l -111.868,234.387 -165.942,222.543 c -186.701,250.382 -384.596,444.991 -654.535,643.669 l -183.434,135.01 -257.979,123.818 -257.978,123.817 -264.142,73.468 -264.143,73.468 -451.555,9.912 -451.556,9.912 -129.275,-23.631 z"
       id="path3038"
       inkscape:connector-curvature="0" /><path
       style="fill:#5e3e81"
       d="m 14535.801,12441.545 -225.427,-25.26 -242.68,-69.612 c -306.358,-87.878 -528.514,-185.768 -752.856,-331.735 -200.809,-130.656 -224.181,-159.591 -70.556,-87.349 l 105.834,49.768 889,8.632 889,8.632 148.078,-17.708 148.079,-17.707 -32.339,-61.48 c -17.787,-33.815 -141.12,-173.039 -274.073,-309.388 l -241.733,-247.907 186.105,-175.426 c 102.357,-96.484 501.954,-475.166 887.993,-841.514 698.212,-662.5979 988.314,-928.4679 1013.09,-928.4679 7.14,0 -31.384,58.1229 -85.609,129.1619 -54.225,71.0387 -98.591,147.7447 -98.591,170.4574 0,22.713 -25.056,90.409 -55.679,150.4363 -78.732,154.3267 -140.985,341.8983 -141.466,426.2443 -0.226,39.582 -12.221,84.032 -26.657,98.778 -34.483,35.225 -111.768,248.152 -148.021,407.811 -15.86,69.85 -41.248,177.8 -56.417,239.889 -49.014,200.62 -114.162,645.338 -115.151,786.044 l -0.962,136.934 35.153,21.726 35.154,21.726 89.52,-20.191 c 49.236,-11.104 120.971,-35.728 159.411,-54.72 l 69.892,-34.53 -70.052,56.347 c -353.602,284.422 -960.706,490.322 -1538.614,521.823 l -254,13.845 -225.426,-25.26 z"
       id="path3036"
       inkscape:connector-curvature="0" /><path
       style="fill:#563a7c"
       d="m 15349.701,11742.424 c -106.35,-92.431 -248.43,-225.028 -315.735,-294.66 l -122.373,-126.603 567.056,-532.68 c 311.881,-292.974 582.849,-537.597 602.15,-543.607 l 35.095,-10.927 -59.904,67.371 -59.904,67.372 -77.706,197.555 c -42.738,108.656 -95.156,222.607 -116.485,253.225 -21.328,30.617 -38.779,78.939 -38.779,107.381 0,28.443 -26.147,109.111 -58.105,179.263 l -58.106,127.549 -37.707,324.196 c -20.739,178.309 -44.103,330.593 -51.921,338.41 -7.817,7.817 -101.226,-61.413 -207.576,-153.845 z"
       id="path3034"
       inkscape:connector-curvature="0" /></g></svg>