<?xml version="1.0" encoding="UTF-8" standalone="no"?>
<!-- Created with Inkscape (http://www.inkscape.org/) -->

<svg
   xmlns:dc="http://purl.org/dc/elements/1.1/"
   xmlns:cc="http://creativecommons.org/ns#"
   xmlns:rdf="http://www.w3.org/1999/02/22-rdf-syntax-ns#"
   xmlns:svg="http://www.w3.org/2000/svg"
   xmlns="http://www.w3.org/2000/svg"
   xmlns:xlink="http://www.w3.org/1999/xlink"
   xmlns:sodipodi="http://sodipodi.sourceforge.net/DTD/sodipodi-0.dtd"
   xmlns:inkscape="http://www.inkscape.org/namespaces/inkscape"
   width="1348.6857"
   height="907.93384"
   id="svg2"
   version="1.1"
   inkscape:version="0.48.4 r9939"
   sodipodi:docname="ideia0.svg">
  <defs
     id="defs4">
    <linearGradient
       gradientTransform="translate(-52,0)"
       gradientUnits="userSpaceOnUse"
       xlink:href="#linearGradient3820"
       id="linearGradient3834"
       y2="432.48389"
       x2="427.37671"
       y1="547.20599"
       x1="314.62408" />
    <linearGradient
       id="linearGradient3820">
      <stop
         offset="0"
         style="stop-color:#070135;stop-opacity:1"
         id="stop3822" />
      <stop
         offset="1"
         style="stop-color:#612d50;stop-opacity:1"
         id="stop3824" />
    </linearGradient>
    <linearGradient
       id="linearGradient-1"
       y2="158.42992"
       x2="189.13953"
       y1="35.284611"
       x1="78.819672"
       gradientTransform="scale(1.2333188,0.81082038)"
       gradientUnits="userSpaceOnUse">
      <stop
         id="stop3253"
         offset="0%"
         stop-color="#C9CBCE" />
      <stop
         id="stop3255"
         offset="100%"
         stop-color="#7B7A81" />
    </linearGradient>
  </defs>
  <sodipodi:namedview
     id="base"
     pagecolor="#ffffff"
     bordercolor="#666666"
     borderopacity="1.0"
     inkscape:pageopacity="0.0"
     inkscape:pageshadow="2"
     inkscape:zoom="0.52272037"
     inkscape:cx="726.7332"
     inkscape:cy="505.293"
     inkscape:document-units="px"
     inkscape:current-layer="layer1"
     showgrid="false"
     fit-margin-left="0.5"
     units="cm"
     fit-margin-right="0.5"
     fit-margin-bottom="0.5"
     fit-margin-top="0.5"
     inkscape:window-width="1366"
     inkscape:window-height="744"
     inkscape:window-x="0"
     inkscape:window-y="24"
     inkscape:window-maximized="1" />
  <metadata
     id="metadata7">
    <rdf:RDF>
      <cc:Work
         rdf:about="">
        <dc:format>image/svg+xml</dc:format>
        <dc:type
           rdf:resource="http://purl.org/dc/dcmitype/StillImage" />
        <dc:title />
      </cc:Work>
    </rdf:RDF>
  </metadata>
  <g
     inkscape:label="Camada 1"
     inkscape:groupmode="layer"
     id="layer1"
     transform="translate(-95.364115,-353.62258)">
    <g
       id="g3109"
       transform="translate(1126.0202,823.85386)"
       style="opacity:0.2">
      <path
         style="fill:#e5a228;fill-opacity:1;stroke:none"
         inkscape:connector-curvature="0"
         id="Shape"
         d="m 27.383,386.266 -27.07,-303.62 297.45,0 -27.098,303.571 -121.809,33.769 -121.473,-33.72 z m 0,0" />
      <path
         style="fill:#f1bf26;fill-opacity:1;stroke:none"
         inkscape:connector-curvature="0"
         id="path13"
         d="m 149.038,394.175 98.427,-27.288 23.158,-259.416 -121.585,0 0,286.704 z m 0,0" />
      <path
         style="fill:#ebebeb;stroke:none"
         inkscape:connector-curvature="0"
         id="path15"
         d="m 149.038,220.08 -49.275,0 -3.404,-38.132 52.679,0 0,-37.239 -0.129,0 -93.246,0 0.892,9.991 9.152,102.616 83.331,0 0,-37.236 z m 0,0" />
      <path
         style="fill:#ebebeb;stroke:none"
         inkscape:connector-curvature="0"
         id="path17"
         d="m 149.038,316.788 -0.163,0.046 -41.472,-11.199 -2.652,-29.698 -20.151,0 -17.229,0 5.217,58.467 76.278,21.176 0.172,-0.048 0,-38.744 z m 0,0" />
      <path
         style="fill:#ffffff;stroke:none"
         inkscape:connector-curvature="0"
         id="path27"
         d="m 148.909,220.08 0,37.236 45.854,0 -4.322,48.294 -41.532,11.21 0,38.742 76.34,-21.158 0.559,-6.29 8.751,-98.035 0.908,-9.999 -10.034,0 -76.524,0 z m 0,0" />
      <path
         style="fill:#ffffff;stroke:none"
         inkscape:connector-curvature="0"
         id="path29"
         d="m 148.909,144.709 0,23.128 0,14.019 0,0.092 89.827,0 0.12,0 0.747,-8.37 1.696,-18.878 0.891,-9.991 -93.281,0 z m 0,0" />
      <g
         transform="translate(-32.577605,-1.1622819)"
         id="g3367">
        <path
           d="m 171.77,1.1622819 -18.929,0 0,37.9030001 -26.612,0 0,18.714 45.542,0 0,-56.6170001 -10e-4,0 z m 0,0"
           id="path25"
           inkscape:connector-curvature="0"
           style="fill:#010101;stroke:none" />
        <text
           xml:space="preserve"
           style="font-size:20.01675797000000046px;font-style:normal;font-variant:normal;font-weight:normal;font-stretch:normal;text-align:start;line-height:125%;letter-spacing:0px;word-spacing:0px;writing-mode:lr-tb;text-anchor:start;fill:#000000;fill-opacity:1;stroke:none;font-family:Ubuntu Mono;-inkscape-font-specification:Ubuntu Mono"
           x="-238.89874"
           y="57.779282"
           id="text3363"
           sodipodi:linespacing="125%"
           transform="scale(-1,1)"><tspan
             sodipodi:role="line"
             id="tspan3365"
             x="-238.89874"
             y="57.779282"
             style="font-size:109.18231200999998975px;font-style:normal;font-variant:normal;font-weight:normal;font-stretch:normal;text-align:start;line-height:125%;writing-mode:lr-tb;text-anchor:start;font-family:Arial Black;-inkscape-font-specification:'Arial Black,'">z</tspan></text>
      </g>
    </g>
    <g
       transform="matrix(2.3434561,0,0,2.3434561,528.19285,-544.18855)"
       id="layer1-2"
       style="opacity:0.2">
      <rect
         style="fill:url(#linearGradient3834);fill-opacity:1;stroke:none"
         id="rect3050"
         y="425.32587"
         x="255.23856"
         ry="20.679518"
         height="128.54576"
         width="128.01605" />
      <g
         style="font-size:109.79650116000000537px;font-style:normal;font-variant:normal;font-weight:normal;font-stretch:normal;text-align:center;line-height:100%;letter-spacing:0px;word-spacing:0px;writing-mode:lr-tb;text-anchor:middle;fill:#ffffff;fill-opacity:1;stroke:none;font-family:Sans;-inkscape-font-specification:Sans"
         id="text3836"
         transform="scale(1.0052013,0.99482561)">
        <path
           inkscape:connector-curvature="0"
           style="font-weight:bold;line-height:100%;fill:#ffffff;font-family:Sans;-inkscape-font-specification:Sans Bold"
           id="path3841"
           d="m 318.55641,483.16526 c 3.25239,5e-5 5.71852,-0.71477 7.3984,-2.14446 1.67978,-1.42959 2.51969,-3.53831 2.51974,-6.32617 -5e-5,-2.752 -0.83996,-4.84285 -2.51974,-6.27255 -1.67988,-1.46532 -4.14601,-2.19801 -7.3984,-2.19808 l -11.41926,0 0,16.94126 11.41926,0 m 0.69695,35.00836 c 4.14592,10e-6 7.25538,-0.87564 9.32841,-2.62697 2.10867,-1.75129 3.16303,-4.39613 3.16309,-7.93451 -6e-5,-3.46686 -1.03655,-6.05808 -3.10947,-7.77368 -2.07303,-1.75128 -5.20037,-2.62693 -9.38203,-2.62697 l -12.11621,0 0,20.96213 12.11621,0 M 338.4463,489.3842 c 4.43183,1.28672 7.86296,3.6635 10.29343,7.13034 2.43031,3.46692 3.64551,7.7201 3.64558,12.75956 -7e-5,7.72008 -2.60917,13.47438 -7.82729,17.26292 -5.21825,3.78855 -13.15276,5.68283 -23.80353,5.68283 l -34.2578,0 0,-80.04208 30.98749,0 c 11.11541,8e-5 19.15714,1.67991 24.12521,5.03949 5.00367,3.35973 7.50554,8.73875 7.50562,16.13708 -8e-5,3.89583 -0.91147,7.21975 -2.73419,9.97175 -1.82286,2.71637 -4.4677,4.73574 -7.93452,6.05811" />
      </g>
    </g>
    <g
       id="g3257"
       transform="matrix(1.953125,0,0,1.953125,113.08065,624.23779)">
      <path
         id="path3259"
         d="M 149.333,149.333 C 96,149.333 50.674,122.62 50.674,90.62 50.674,58.62 90.667,32 144,32 c 67.357,0 98.572,25.911 98.572,57.911 0,32 -34.407,59.422 -93.239,59.422 M 128,0 C 58.667,0 0,37.333 0,85.333 0,130.667 58.312,168.302 127.646,168.302 196.979,168.302 256,133.333 256,85.333 256,37.333 197.333,0 128,0"
         inkscape:connector-curvature="0"
         style="fill:url(#linearGradient-1)" />
      <path
         id="path3261"
         d="m 105.946,51.829 0,141.109 42.643,0 0,-54.875 c 10.661,0 17.011,-2.328 23.986,10.452 10.661,18.292 23.987,44.423 23.987,44.423 l 50.638,0 c 0,0 -31.982,-52.262 -34.647,-54.875 -4.915,-5.227 -10.661,-5.227 -18.656,-7.84 15.991,-2.613 30.899,-9.248 36.082,-23.464 4.531,-13.065 3.998,-29.685 -5.714,-40.83 -8.411,-8.819 -17.042,-14.1 -38.364,-14.1 l -79.955,0 0,0 z m 42.643,29.388 27.984,0 c 6.636,0 11.993,6.533 11.993,13.065 0,6.533 -5.33,13.066 -11.993,13.066 l -27.984,0 0,-26.131 0,0 z"
         inkscape:connector-curvature="0"
         style="fill:#2165b6" />
    </g>
    <g
       id="Page 1"
       transform="translate(772.80606,823.71886)"
       style="fill:none;stroke:none;opacity:0.2">
      <g
         id="Group">
        <path
           id="Shape-9"
           d="m 27.383,386.266 -27.07,-303.62 297.45,0 -27.098,303.571 -121.809,33.769 -121.473,-33.72 z m 0,0"
           inkscape:connector-curvature="0"
           style="fill:#e44f26" />
        <path
           id="path3355"
           d="m 149.038,394.175 98.427,-27.288 23.158,-259.416 -121.585,0 0,286.704 z m 0,0"
           inkscape:connector-curvature="0"
           style="fill:#f1662a" />
        <path
           id="path3357"
           d="m 149.038,220.08 -49.275,0 -3.404,-38.132 52.679,0 0,-37.239 -0.129,0 -93.246,0 0.892,9.991 9.152,102.616 83.331,0 0,-37.236 z m 0,0"
           inkscape:connector-curvature="0"
           style="fill:#ebebeb" />
        <path
           id="path3359"
           d="m 149.038,316.788 -0.163,0.046 -41.472,-11.199 -2.652,-29.698 -20.151,0 -17.229,0 5.217,58.467 76.278,21.176 0.172,-0.048 0,-38.744 z m 0,0"
           inkscape:connector-curvature="0"
           style="fill:#ebebeb" />
        <path
           id="path3361"
           d="m 27.988,0.135 18.924,0 0,18.696 17.311,0 0,-18.696 18.925,0 0,56.618 -18.924,0 0,-18.958 -17.31,0 0,18.958 -18.926,0 0,-56.618 0,0 z m 0,0"
           inkscape:connector-curvature="0"
           style="fill:#010101" />
        <path
           id="path3363"
           d="m 108.032,18.91 -16.66,0 0,-18.775 52.252,0 0,18.775 -16.667,0 0,37.843 -18.924,0 0,-37.843 -0.001,0 0,0 z m 0,0"
           inkscape:connector-curvature="0"
           style="fill:#010101" />
        <path
           id="path3365"
           d="m 151.917,0.135 19.733,0 12.137,19.894 12.127,-19.894 19.739,0 0,56.618 -18.846,0 0,-28.063 -13.021,20.13 -0.325,0 -13.028,-20.13 0,28.063 -18.517,0 0,-56.618 0.001,0 z m 0,0"
           inkscape:connector-curvature="0"
           style="fill:#010101" />
        <path
           id="path3367"
           d="m 225.071,0.135 18.929,0 0,37.903 26.612,0 0,18.714 -45.542,0 0,-56.617 0.001,0 z m 0,0"
           inkscape:connector-curvature="0"
           style="fill:#010101" />
        <path
           id="path3369"
           d="m 148.909,220.08 0,37.236 45.854,0 -4.322,48.294 -41.532,11.21 0,38.742 76.34,-21.158 0.559,-6.29 8.751,-98.035 0.908,-9.999 -10.034,0 -76.524,0 z m 0,0"
           inkscape:connector-curvature="0"
           style="fill:#ffffff" />
        <path
           id="path3371"
           d="m 148.909,144.709 0,23.128 0,14.019 0,0.092 89.827,0 0.12,0 0.747,-8.37 1.696,-18.878 0.891,-9.991 -93.281,0 z m 0,0"
           inkscape:connector-curvature="0"
           style="fill:#ffffff" />
      </g>
    </g>
    <g
       id="Page 1-2"
       transform="translate(773.04806,371.20412)"
       style="fill:none;stroke:none;opacity:0.2">
      <g
         id="Layer_1">
        <path
           id="Shape-1"
           d="m 233.164,15.681 -24.688,0 25.674,27.859 0,13.261 -52.882,0 0,-15.526 25.669,0 -25.669,-27.86 0,-13.28 51.896,0 0,15.546 0,0 z m -62.378,0 -24.688,0 25.673,27.859 0,13.261 -52.882,0 0,-15.526 25.672,0 -25.672,-27.86 0,-13.28 51.897,0 0,15.546 0,0 z m -61.768,0.631 -26.64,0 0,24.313 26.64,0 0,16.176 -45.574,0 0,-56.666 45.574,0 0,16.177 0,0 z m 0,0"
           inkscape:connector-curvature="0"
           style="fill:#131313" />
        <path
           id="path3468"
           d="M 27.142,386.29 0.071,82.67 l 297.45,0 -27.096,303.571 -121.811,33.77 L 27.142,386.29 z m 0,0"
           inkscape:connector-curvature="0"
           style="fill:#1572b6" />
        <path
           id="path3470"
           d="m 148.798,394.199 98.427,-27.288 23.157,-259.415 -121.584,0 0,286.703 z m 0,0"
           inkscape:connector-curvature="0"
           style="fill:#33a9dc" />
        <g
           transform="translate(55,142)"
           id="Group-8">
          <path
             id="path3473"
             d="m 93.797,75.496 49.275,0 3.403,-38.132 -52.678,0 0,-37.239 0.129,0 93.246,0 -0.893,9.991 -9.152,102.616 -83.33,0 0,-37.236 z m 0,0"
             inkscape:connector-curvature="0"
             style="fill:#ffffff" />
          <path
             id="path3475"
             d="m 94.02,172.204 -0.163,0.046 -41.472,-11.199 -2.652,-29.698 -20.151,0 -17.228,0 5.216,58.467 76.278,21.176 0.172,-0.048 0,-38.744 z m 0,0"
             inkscape:connector-curvature="0"
             style="fill:#ebebeb" />
          <path
             id="path3477"
             d="m 139.907,111.156 -4.484,49.87 -41.532,11.21 0,38.742 76.339,-21.158 0.56,-6.29 6.478,-72.374 -37.361,0 z m 0,0"
             inkscape:connector-curvature="0"
             style="fill:#ffffff" />
          <path
             id="path3479"
             d="m 93.926,0.125 0,23.128 0,14.019 0,0.092 -89.828,0 -0.119,0 -0.747,-8.37 -1.697,-18.878 -0.89,-9.991 93.281,0 z m 0,0"
             inkscape:connector-curvature="0"
             style="fill:#ebebeb" />
          <path
             id="path3481"
             d="m 93.797,75.5 0,23.129 0,14.017 0,0.092 -40.828,0 -0.119,0 -0.746,-8.369 -1.698,-18.878 -0.89,-9.991 44.281,0 z m 0,0"
             inkscape:connector-curvature="0"
             style="fill:#ebebeb" />
        </g>
      </g>
    </g>
    <text
       xml:space="preserve"
       style="font-size:22px;font-style:normal;font-variant:normal;font-weight:normal;font-stretch:normal;text-align:start;line-height:125%;letter-spacing:0px;word-spacing:0px;writing-mode:lr-tb;text-anchor:start;fill:#4d4d4d;fill-opacity:1;stroke:none;font-family:Ubuntu Mono;-inkscape-font-specification:Ubuntu Mono"
       x="652.88049"
       y="863.12195"
       id="text3498"
       sodipodi:linespacing="125%"><tspan
         sodipodi:role="line"
         id="tspan3500"
         x="652.88049"
         y="863.12195"
         style="font-size:144px;fill:#4d4d4d">+</tspan></text>
    <text
       xml:space="preserve"
       style="font-size:130px;font-style:normal;font-variant:normal;font-weight:normal;font-stretch:normal;text-align:start;line-height:125%;letter-spacing:0px;word-spacing:0px;writing-mode:lr-tb;text-anchor:start;fill:#ff0000;fill-opacity:1;stroke:none;font-family:Ubuntu Mono;-inkscape-font-specification:Ubuntu Mono"
       x="1102.7977"
       y="703.72278"
       id="text3800"
       sodipodi:linespacing="125%"><tspan
         sodipodi:role="line"
         id="tspan3802"
         x="1132.7977"
         y="703.72278"
         style="font-size:120px;font-weight:bold;text-align:center;text-anchor:middle;fill:#ff0000">Não precisa </tspan><tspan
         sodipodi:role="line"
         x="1132.7977"
         y="853.72278"
         style="font-size:120px;font-weight:bold;text-align:center;text-anchor:middle;fill:#ff0000"
         id="tspan3804">conhecer </tspan><tspan
         sodipodi:role="line"
         x="1102.7977"
         y="1003.7228"
         style="font-size:120px;font-weight:bold;text-align:center;text-anchor:middle;fill:#ff0000"
         id="tspan3806">:) !!!</tspan></text>
  </g>
</svg>
